Patient4_TMGait_0pt7_01_right_46_EMG.mot
version=1
nRows=16
nColumns=33
inDegrees=no
endheader
time	1LAddLong	2LGlutMax	3LGlutMed	4LIliopsoas	5LSemiMemb	6LBicFemLong	7LRecFem	8LVastMed	9LVastLat	10LGasMed	11LTibAnt	12lTibPost	13LPeroneusLong	14LSol	15LExtDigLong	16LFlexDigLong	17RAddLong	18RGlutMax	19RGlutMed	20RIliopsoas	21RSemiMemb	22RBicFemLong	23RRecFem	24RVastMed	25RVastLat	26RGasMed	27RTibAnt	28RTibPost	29RPeroneusLong	30RSol	31RExtDigLong	32RFlexDigLong
54.015	0.00824	0.087738	0.043335	0.006409	0.041351	-0.103	0.2478	-0.007477	-0.007629	-0.1181	0.066376	0.002289	-0.18143	0.44006	0.07431	-0.42496	-0.056915	-0.09964	-0.085602	-0.1059	-0.038147	0.075378	0.046844	-0.093384	0.009766	-0.14847	-0.05722	-0.000153	-0.044098	-0.064545	-0.002289	0.003357
54.016	-0.005493	0.1059	0.051727	-0.00473	0.000916	-0.09552	0.2446	-0.006256	-0.009003	0.13962	0.062103	-0.13351	-0.11826	0.32684	0.049286	-0.20065	-0.07431	-0.029144	-0.27573	-0.1239	-0.073547	0.040131	0.042877	-0.081482	0.007172	-0.14603	-0.15701	-0.002441	0.033264	-0.043182	-0.001373	-0.002747
54.017	-0.00473	0.11551	0.011292	0.00061	-0.031891	-0.085144	0.26138	-0.007782	-0.003204	0.43915	0.025787	-0.084381	-0.057526	0.14053	0.045471	0.61813	-0.037689	-0.024414	-0.50217	-0.15717	-0.057373	0.01236	0.056458	-0.033417	0.003052	-0.096283	-0.31891	-0.005341	0.037537	-0.020294	0.00061	0.00885
54.018	0.000153	0.12558	0.011292	-0.002136	-0.000458	-0.036926	0.24597	0.005951	-0.002747	1.091	0.038605	-0.010071	-0.001678	0.35004	0.012817	0.31982	0.072784	-0.048218	-0.24704	-0.10208	-0.11917	0.008545	0.049286	-0.0737	0.014343	-0.010986	-0.058289	-0.007629	0.066986	0.00412	-0.003204	0.000153
54.019	0.002441	0.11719	0.002747	-0.005493	0.10193	0.10574	0.26627	0.005646	0.004425	1.7619	0.02243	-0.036926	-0.027008	-0.050049	0.005798	-0.057526	0.10773	-0.066071	0.13947	0.033417	-0.15778	0.024719	0.071106	-0.093842	0.013733	0.089874	-0.12329	-0.001068	0.056458	-0.01709	0.001221	0.007172
54.02	0.007477	0.10757	-0.012817	-0.007324	0.052338	0.10193	0.28473	0.005798	0.001373	1.7255	0.003815	-0.10529	0.11261	-0.58029	0.037079	0.28061	0.088348	-0.1268	0.099792	0.18494	-0.20493	0.023346	0.11353	-0.097504	0.004578	0.19806	-0.13794	-0.002441	0.061035	-0.096893	-0.001221	0.007172
54.021	0.010681	0.10559	-0.03418	-0.026703	-0.022888	0.036163	0.29724	0.002441	-0.008545	0.57892	-0.006714	0.6279	0.21835	-0.047302	0.030823	-0.11643	0.045776	-0.080566	-0.24017	0.24643	-0.12436	0.02655	0.094299	-0.082245	-0.002747	0.27618	0.058136	-0.006104	-0.054169	-0.15976	-0.005188	0.000916
54.022	0.005798	0.067749	-0.042419	-0.009003	-0.068054	0.018768	0.30579	0.008545	-0.065918	-0.59815	-0.014954	-0.31754	0.26443	0.21164	-0.016937	-0.73898	-0.013123	-0.070953	-0.51041	0.19806	0.088959	0.010529	0.011597	-0.016632	0.022736	0.30823	0.057678	-0.003204	-0.090332	-0.16663	-0.006104	-0.005493
54.023	0.007629	0.054474	0.007477	0.0354	0.018616	0.057373	0.31403	0.004578	-0.10849	-0.94009	-0.028534	-0.14694	0.3157	0.004272	-0.054932	-0.28702	-0.053101	-0.10651	-0.3598	0.090332	0.020752	-0.024567	0.06546	-0.009003	0.02533	0.34409	-0.060577	-0.000458	0.033112	-0.059814	-0.00351	0.002441
54.024	0.010376	0.088348	-0.005493	0.029297	0.043793	0.015411	0.31769	0.010071	-0.13245	0.042267	-0.009918	-0.008392	0.2298	0.009308	-0.09491	1.2564	-0.059204	-0.047607	0.63248	0.035248	0.20279	-0.088959	0.016327	0.026093	0.020905	0.34668	-0.12054	-0.008698	0.040436	-0.000305	-0.009613	0.006714
54.025	0.019989	0.10803	-0.033417	0.02655	0.009766	-0.047913	0.38284	0.009308	-0.13336	0.99945	-0.003967	-0.038757	0.067139	0.20889	-0.11002	-0.29053	-0.050354	-0.088959	0.69168	0.065155	0.098572	-0.13077	0.04776	0.009766	0.019989	0.30594	-0.040588	-0.001984	0.073853	0.093689	-0.001526	0.002441
54.026	0.016785	0.11215	0.007324	0.011292	0.050812	-0.058594	0.39505	0.010681	-0.11032	0.63889	0.009918	-0.083008	0.026398	0.38361	-0.10132	0.16754	-0.026093	-0.10819	-0.24765	0.044861	-0.0177	-0.14175	0.032959	-0.031433	0.015106	0.23224	0.032501	-0.010681	0.065918	0.092773	-0.003052	0.005646
54.027	0.014038	0.13519	-0.023193	0.013428	0.07019	-0.023041	0.43228	0.009003	0.009613	-0.54077	0.010071	-0.078583	0.015869	0.21301	-0.071869	0.18173	-0.001373	-0.11536	0.034943	-0.064545	-0.13916	-0.15442	0.041809	-0.045319	0.010071	0.15045	0.062103	-0.006409	0.025635	0.007782	-0.001221	0.003357
54.028	0.008698	0.16113	-0.004883	-0.000458	0.058289	0.05188	0.45059	0.008545	0.007782	-0.58014	0.013123	-0.03891	-0.047913	0.53604	-0.02182	0.27527	-0.004883	-0.066071	-0.10971	-0.099335	-0.26672	-0.13245	0.068817	-0.023346	0.008087	0.094757	0.058441	-0.00473	-0.062714	0.088196	0.006561	0.010376
54.029	0.007935	0.19653	0.073395	-0.018005	0.024567	0.12741	0.40756	0.01358	0.037231	-0.62988	0.021667	-0.026093	-0.10834	0.31738	-0.00946	0.019379	0.005035	-0.09491	-0.40176	-0.12665	-0.20737	-0.035095	0.058746	-0.047607	0.023346	0.046692	0.030823	-0.003662	-0.014801	0.15106	-0.004272	0.008392
54.03	0.005341	0.18753	0.12634	-0.010376	0.010986	0.13168	0.4155	0.012512	-0.03479	-0.91583	0.023346	-0.00824	-0.16922	-0.3418	-0.022888	-0.26672	-0.038452	-0.086212	-0.3241	-0.057831	0.20279	0.014038	0.021515	-0.055695	0.037384	0.0177	0.039673	-0.008545	-0.066376	0.075226	-0.005493	0.004425
